<?xml version="1.0" encoding="UTF-8"?>
<svg enable-background="new 0 0 1920 1080" version="1.1" viewBox="0 0 1920 1080" xml:space="preserve" xmlns="http://www.w3.org/2000/svg">
<style type="text/css">
	.st0{fill:#FFFFFF;}
	.st1{opacity:0.4485;fill:#EBEBEB;enable-background:new    ;}
	.st2{fill:#EBEBEB;}
	.st3{opacity:0.7128;fill:#EBEBEB;enable-background:new    ;}
	.st4{opacity:0.7541;fill:#EBEBEB;enable-background:new    ;}
	.st5{opacity:0.694;fill:#EBEBEB;enable-background:new    ;}
	.st6{opacity:0.7259;fill:#EBEBEB;enable-background:new    ;}
	.st7{opacity:0.7075;fill:#EBEBEB;enable-background:new    ;}
	.st8{opacity:0.675;fill:#EBEBEB;enable-background:new    ;}
	.st9{opacity:0.5314;fill:#EBEBEB;enable-background:new    ;}
	.st10{opacity:0.6655;fill:#EBEBEB;enable-background:new    ;}
	.st11{opacity:0.5564;fill:#EBEBEB;enable-background:new    ;}
	.st12{opacity:0.4485;fill:none;stroke:#EBEBEB;stroke-width:3.0635;enable-background:new    ;}
	.st13{opacity:0.5314;fill:none;stroke:#EBEBEB;stroke-width:3.0635;enable-background:new    ;}
</style>

	<path class="st0" d="m1627.7 704.4c-0.8 0-1.5 0.7-1.5 1.5s0.7 1.5 1.5 1.5h55.1c0.8 0 1.5-0.7 1.5-1.5s-0.7-1.5-1.5-1.5h-55.1zm-6.2 6.2c-0.8 0-1.5 0.7-1.5 1.5s0.7 1.5 1.5 1.5h67.4c0.8 0 1.5-0.7 1.5-1.5s-0.7-1.5-1.5-1.5h-67.4zm-5.4-46.9c-0.7-1.1-0.5-2.6 0.5-3.4l27.4-21.3c0.3-0.3 0.6-0.7 0.6-1.1l0.6-8.7 8.6 6.3c0.1 0 0.3 0.8 0.5 0.8 0.2 0.1 0.4 0.7 0.7 0.7 0.2 0 0.2-0.4 0.2-0.5l6.4-3.8 4.4 6.6c0.3 0.4 0.7 0.6 1.2 0.7l4.9 0.4-2 4.6c-0.3 0.7 0 1.6 0.7 1.9l4.7 2.6-3.3 4.3c-0.2 0.3-0.4 0.7-0.3 1.1s0.3 0.8 0.6 1l4.4 3.3-3.7 4.1c-0.3 0.3-0.4 0.7-0.4 1.1s0.2 0.8 0.5 1.1l4.2 3.6-3.9 4c-0.3 0.3-0.4 0.7-0.4 1.1s0.2 0.8 0.5 1.1l4.1 3.7-4 3.9c-0.3 0.3-0.5 0.7-0.5 1.1s0.2 0.8 0.5 1.1l4.1 3.8-4 3.9c-0.3 0.3-0.5 0.7-0.5 1.1s0.2 0.8 0.5 1.1l3.5 3h-44.4c0.2-11.7 4.8-15 9.7-18.5 4.6-3.2 9.3-6.6 9.6-16.5l3.7-1.2c0.8-0.3 1.2-1.1 1-1.9-0.3-0.8-1.1-1.2-1.9-1l-31.7 10.3c-1.3 0.4-3.3-0.2-4.1-1.4l-3.2-4.1zm33.1 0.6c-0.5 7.5-4.1 10-8.2 13-5.1 3.6-10.8 7.7-11 21.2-0.5 0.3-0.8 0.7-0.8 1.3 0 0.8 0.7 1.5 1.5 1.5h52.1c0.8 0 1.5-0.7 1.5-1.5s-0.7-1.5-1.5-1.5h-0.6l-4.8-4.3 4-3.8c0.3-0.3 0.5-0.7 0.5-1.1s-0.2-0.8-0.5-1.1l-4.1-3.8 4-3.9c0.3-0.3 0.5-0.7 0.5-1.1s-0.2-0.8-0.5-1.1l-4.1-3.8 3.9-4c0.3-0.3 0.5-0.7 0.4-1.1 0-0.4-0.2-0.8-0.5-1.1l-4.3-3.6 3.7-4.2c0.3-0.3 0.4-0.8 0.4-1.2s-0.3-0.8-0.6-1.1l-4.5-3.4 3.4-4.5c0.3-0.4 0.4-0.8 0.3-1.2s-0.4-0.8-0.7-1l-5-2.8 2.3-5.3c0.2-0.5 0.2-1-0.1-1.4s-0.7-0.7-1.2-0.7l-6.2-0.6-4.6-7.3c-0.4-0.7-1.3-0.9-2.1-0.5l-6.6 3.8-10.1-7.7c-0.4-0.3-1.1-0.4-1.6-0.2s-0.9 0.7-0.9 1.3l-0.8 10.6-26.9 20.9c-2.3 1.8-2.8 5.2-1.2 7.6l3.1 4.5c1.2 1.8 3.5 2.8 5.6 2.8 0.7 0 1.3-0.1 1.9-0.3l24.9-8.3z"/>

	<title>bg-2</title>

	<g transform="translate(7 91)">
		<path class="st1" d="m197.6 237.2c-5.8 0-13.4-3.7-19.6-6.6-3.7-1.7-7-3.2-9.1-3.8v-18.8c9.9 0.4 14.8 3.6 18.4 5.9 2.1 1.4 3.8 2.4 6 2.4 3-0.1 10.1 0 12.5 2.9 0.6 0.7 0.8 1.5 0.9 2.5h-22.5c-0.9 0-1.5 0.7-1.5 1.5s0.7 1.5 1.5 1.5h23.7c4.3 1 9.4-3.2 13.9-7 2.3-1.9 5.2-4.4 6.4-4.4 3.4 0 5 1.6 5 5.2-0.2 4.9-24.8 18.7-35.6 18.7zm-50.2-36.9h18.4v30.7h-18.4v-30.7zm80.6 10.1c-2.2 0-4.9 2.2-8.3 5.1-3.3 2.7-7.2 6.1-10.1 6.4 0-1.8-0.5-3.3-1.6-4.6-3.3-4-10.8-4-14.8-4-1.2 0-2.4-0.7-4.4-1.9-3.7-2.4-9.3-5.9-20.1-6.4v-6.2c0-0.8-0.7-1.5-1.5-1.5h-21.4c-0.9 0-1.5 0.7-1.5 1.5v33.7c0 0.8 0.7 1.5 1.5 1.5h21.4c0.8 0 1.5-0.7 1.5-1.5v-2.5c1.9 0.6 4.8 2 7.8 3.4 6.5 3.1 14.3 6.9 20.8 6.9 11.2 0 38.6-14.2 38.6-21.6 0.1-5.3-2.8-8.3-7.9-8.3zm-62.8-54.6c9.7 0.8 17.7 4.3 22.6 10 4.1 4.7 6 10.8 5.6 17.8-9 0.5-16.3-2.3-21.4-7.9-4.7-5.2-7.2-12.5-6.8-19.9zm51.1 23c2.8-3.2 7.3-5.3 12.7-5.9 0 4.1-1.4 8.2-4 11.1-2.9 3.2-7.1 4.8-12 4.7-0.1-3.9 1-7.3 3.3-9.9zm-24.9 7.9c0.8 0 1.7-0.1 2.6-0.1 2.3 3.5 5.1 13.2 5.1 16.7 0 0.8 0.7 1.5 1.5 1.5s1.5-0.7 1.5-1.5c0-3.5 5.9-8.8 9.9-11.6 0.5 0 1.1 0.1 1.6 0.1 5.6 0 10.3-2 13.7-5.7 3.5-3.8 5.2-9.4 4.7-14.9-0.1-0.8-0.8-1.4-1.6-1.4-7 0.4-12.8 2.9-16.4 7-2.9 3.4-4.2 7.7-4 12.5-1.8 1.3-6.1 4.5-8.8 8.3-1.1-4.7-3.1-10.4-5-13.1 0.6-8.1-1.5-15.2-6.2-20.7-5.7-6.6-15-10.6-26.2-11.2-0.8-0.1-1.5 0.6-1.6 1.4-0.9 8.7 1.9 17.6 7.4 23.7 5.4 5.8 12.9 9 21.8 9z"/>
		<path class="st2" d="m783.1 135.8h-21.4v-1.6c0-0.8 0.7-1.5 1.5-1.5h18.5c0.8 0 1.5 0.7 1.5 1.5v1.6h-0.1zm0 30.6h-21.4v-27.6h21.4v27.6zm0 7.7c0 0.8-0.6 1.5-1.5 1.5h-18.5c-0.8 0-1.5-0.7-1.5-1.5v-4.7h21.4v4.7h0.1zm-24.6-40v13.9h-67.4v-39.8h82.7v21.4h-10.8c-2.4 0-4.5 2.1-4.5 4.5zm0 26.2h-66.4c-0.3 0-0.4 0-0.5-0.1-0.4-0.4-0.4-2.2-0.4-3.4v-5.6h67.4v9.1h-0.1zm-37.1 15.3 2.6-12.3h13.8l2.6 12.3h-19zm-30.2-76.5s0.2-0.1 0.9-0.1h78.3c0.6 0 3.5 0.1 3.5 2.6v3.5h-82.7v-4.1c-0.1-0.7-0.1-1.7 0-1.9zm90.4 30.5h-4.7v-28c0-3.3-2.7-5.7-6.5-5.7h-78.3c-0.9 0-2.1 0.1-3 1-1 1-1 2.4-1 4.1v55.1 0.6c0 2.1 0 4.2 1.3 5.6 0.7 0.7 1.6 1 2.7 1h28.8l-2.6 12.3h-2.6c-0.8 0-1.5 0.7-1.5 1.5s0.7 1.5 1.5 1.5h26.7 0.1 3.9c0.8 0 1.5-0.7 1.5-1.5s-0.7-1.5-1.5-1.5h-2.7l-2.6-12.3h17.5v10.8c0 2.5 2 4.5 4.5 4.5h18.5c2.5 0 4.5-2 4.5-4.5v-40c0-2.4-2-4.5-4.5-4.5z"/>
		<path class="st2" d="m1585.9 516.6-11.6 7.2-2.2 1.3c-0.7-1.7-1-3.5-0.9-5.3 0.3-0.3 0.4-0.6 0.4-1.1 0-0.2-0.1-0.5-0.2-0.7 0.7-2.8 2.4-5.2 4.9-6.8 1.7-1.1 3.7-1.6 5.8-1.6 3.3 0 6.4 1.5 8.5 4l-4.7 3zm3 5.6c-0.4 1.8-1.5 3.3-3.1 4.2-2.7 1.7-6.3 1.2-8.5-1l11.3-7c0.5 1.3 0.6 2.6 0.3 3.8zm-20.3-5h-26.8c-0.9-6.9-7.9-14.6-16.1-14.6-2.8 0-5.3 0.4-7.7 1.1v-7.9h20.2c2.9 0 8.9 8 8.9 16.8 0 0.8 0.7 1.5 1.5 1.5h12.6c0.8 0 1.5-0.6 1.5-1.4 0-0.1 1.2-12 9.5-15.8 0.5-0.2 0.9-0.8 0.9-1.4v-9h1.7c1.2 3.1 5.2 13.1 8.6 20.1-0.4 0-0.8-0.1-1.3-0.1-2.6 0-5.2 0.7-7.4 2.1-3 2-5.2 5-6.1 8.6zm-61.6 0c4.2-7.9 10.2-11.6 18.8-11.6 6.6 0 12 6.5 13 11.6h-31.8zm18.7 10.4c-4.6 0-8.1-3.1-8.8-7.4h17.6c-0.6 4.3-4.2 7.4-8.8 7.4zm-10.7-41.1h24.5v6.1h-24.5v-6.1zm79.2 26.8c-1.7-2.7-4.1-4.7-7-5.8 0-0.2-0.1-0.3-0.1-0.5-4.1-8.2-9.6-22.4-9.7-22.6-0.2-0.6-0.8-1-1.4-1h0.3c0.8 0 1.5-0.7 1.5-1.5s-0.7-1.5-1.5-1.5h-12.3c-0.9 0-1.5 0.7-1.5 1.5s0.7 1.5 1.5 1.5h7.7c-0.9 0-1.5 0.7-1.5 1.5v9.6c-7.4 4-9.6 13-10.2 16.4h-9.7c-0.5-6.9-4.2-14.2-8.4-17.1 0.4-0.3 0.7-0.8 0.7-1.3v-7.5c0-0.8-0.7-1.5-1.5-1.5h-27.6c-0.9 0-1.5 0.7-1.5 1.5v9.2c0 0.8 0.7 1.5 1.5 1.5h1.5v9.1c-5 2.4-9 6.8-11.9 13.3-0.2 0.5-0.2 1 0.1 1.5 0.3 0.4 0.8 0.7 1.3 0.7h9.3c0.7 6.1 5.6 10.5 11.9 10.5s11.2-4.4 11.9-10.5h30.6c-0.1 2.7 0.6 5.5 2.1 7.8 0.2 0.4 0.6 0.6 1 0.7h0.4c0.3 0 0.6-0.1 0.8-0.2l2.4-1.5c1.9 2.2 4.6 3.5 7.5 3.5 1.8 0 3.6-0.5 5.2-1.5 2.3-1.4 3.8-3.6 4.4-6.2 0.5-2.1 0.3-4.2-0.5-6.1l2.4-1.5c0.5-0.4 0.8-1.3 0.3-2z"/>
		<path class="st2" d="m596.2 458.6c0 3-1.7 6.1-5.3 6.1-3.7 0-5.3-3.2-5.3-6.1 0-0.8-0.7-1.5-1.5-1.5s-1.5 0.7-1.5 1.5c0 3.4-2.7 6.1-6.1 6.1s-6.1-2.7-6.1-6.1c0-0.8-0.7-1.5-1.5-1.5s-1.5 0.7-1.5 1.5c0 3.4-2.7 6.1-6.1 6.1s-6.1-2.7-6.1-6.1c0-0.8-0.7-1.5-1.5-1.5s-1.5 0.7-1.5 1.5c0 3.4-2.8 6.1-6.1 6.1-3.4 0-6.1-2.7-6.1-6.1 0-0.8-0.7-1.5-1.5-1.5-0.9 0-1.5 0.7-1.5 1.5 0 3.4-2.8 6.1-6.2 6.1s-6.2-2.7-6.2-6.1c0-0.8-0.7-1.5-1.5-1.5s-1.5 0.7-1.5 1.5c0 3.4-2.8 6.1-6.2 6.1-2.4 0-4.4-2.9-4.4-6.1v-1.4l9.2-13.5h66.8l9.2 13.5v1.4zm-70.5 34.1v-26.1c1.4 0.8 2.9 1.2 4.6 1.2 3.2 0 6-1.6 7.7-4.1 1.6 2.5 4.5 4.1 7.7 4.1s6-1.6 7.7-4.1c1.7 2.5 4.5 4.1 7.7 4.1s6-1.6 7.7-4.1c1.7 2.5 4.5 4.1 7.7 4.1 1.6 0 3.2-0.4 4.5-1.2v26.1h-55.3zm64.4 9.1h-73.5v-34.3c2.5-0.5 4.7-1.9 6.1-4 0.1 0.2 0.3 0.4 0.4 0.5-0.2 0.3-0.4 0.6-0.4 0.9v29.1c0 0.8 0.7 1.5 1.5 1.5h58.2c0.8 0 1.5-0.7 1.5-1.5v-29.1c0-0.3-0.1-0.6-0.3-0.9l0.3-0.3c1.3 2.2 3.5 3.6 6.2 3.9v34.2zm-49.1-70.4h24.5v9.2h-24.5v-9.2zm-9.2-15.3h42.9v12.3h-42.9v-12.3zm67.2 39.7-9.9-14.6c-0.3-0.4-0.8-0.7-1.3-0.7h-19.2v-9.2h7.7c0.8 0 1.5-0.7 1.5-1.5v-15.3c0-0.8-0.7-1.5-1.5-1.5h-46c-0.9 0-1.5 0.7-1.5 1.5v15.3c0 0.8 0.7 1.5 1.5 1.5h7.7v9.2h-19.2c-0.5 0-1 0.2-1.3 0.7l-9.9 14.6c-0.2 0.2-0.3 0.6-0.3 0.9v1.9c0 4.4 2.7 8.2 6.1 9v35.8c0 0.8 0.7 1.5 1.5 1.5h76.6c0.8 0 1.5-0.7 1.5-1.5v-35.9c3.7-1 6.1-4.4 6.1-8.9v-1.9c0.1-0.4 0-0.7-0.1-0.9z"/>
		<path class="st3" d="m1700.6 362.1c-1.5 0.9-3.1 2.4-4.3 4.4l-7.9 14.5v-48.2c0-3.6 1.9-7.2 6.1-7.2s6.1 3.7 6.1 7.3v29.2zm38.3-39.5c-5.4 0-9.2 4.6-9.2 10.7v21.8c-1.6-1.3-3.7-1.9-6.1-1.9-3.2 0-5.8 1.2-7.3 3.2-1.6-2.9-4.4-3.2-6.4-3.2-2.4 0-4.6 0.8-6.1 2.1v-22.3c0-6.1-3.8-10.4-9.2-10.4s-9.2 4.2-9.2 10.2v59.7c0 10.5 8.2 19 18.4 19 0.8 0 1.5-0.7 1.5-1.5s-0.7-1.5-1.5-1.5c-8.5 0-15.3-7.1-15.3-15.9v-5.6l10.6-18.9c2.2-3.7 5.3-4.8 8.6-3 1.8 1 3.1 2.6 3.5 4.4 0.5 1.7 0.2 3.4-0.8 5.2l-3.4 8-0.1 5.8c0 0.8 0.7 1.5 1.5 1.5s1.5-0.7 1.5-1.5v-4.9l3.2-7.6c1.3-2.3 1.7-4.9 1-7.3-0.7-2.6-2.5-4.9-5-6.3-1.7-1-3.5-1.4-5.2-1.3 0.6-2.7 2.4-4.8 5.9-4.8 2.3 0 4.6 0.2 4.6 6.1 0 0.1 0 0.2 0.1 0.3 0 0.1-0.1 0.2-0.1 0.3v5.5c0 0.8 0.7 1.5 1.5 1.5s1.5-0.7 1.5-1.5v-5.5c0-0.1 0-0.2-0.1-0.3 0-0.1 0.1-0.2 0.1-0.3 0-4.1 2.2-6.1 6.1-6.1 4.1 0 6.1 2.4 6.1 6.1v6.1c0 0.8 0.7 1.5 1.5 1.5s1.5-0.7 1.5-1.5v-35.2c0-3.6 1.9-7.7 6.1-7.7s6.1 4.1 6.1 7.7v58.6c0 8.8-6.8 16.5-15.3 16.5-0.9 0-1.5 0.7-1.5 1.5s0.7 1.5 1.5 1.5c10.2 0 18.4-9 18.4-19.5v-58.6c0.2-6-3.6-10.7-9-10.7z"/>
		<path class="st2" d="m1552.3 685.7c-2.2 0-4-1-6.3-1.8-2.3-0.9-4.6-1.7-7.1-1.7-2.3 0-4.5 0.8-6.7 1.6s-3.7 1.9-6 1.9-6.8-1-11.3-7.3c-3.4-4.7-14.8-25.3-8.4-39.6 3.9-8.7 9.1-13 15.9-13 3.8 0 7.4 1.3 10.4 2.3 2.2 0.8 4 1.4 5.5 1.4 1.7 0 3.5-0.7 5.7-1.5 2.9-1.1 6.1-2.2 9.7-2.2 4.7 0 9.1 2.1 13.4 6.4-5.6 4.5-8.5 9.8-8.5 15.8 0 7.4 3.5 13 11.2 18.1-8.1 17.3-13.9 19.6-17.5 19.6zm20.2-21.7c-7.6-4.7-10.9-9.6-10.9-16.2 0-5.4 2.9-10.2 8.6-14.3 0.4-0.3 0.6-0.6 0.6-1.1 0-0.4-0.1-0.9-0.4-1.2-5.2-5.8-10.7-8.6-16.8-8.6-4.2 0-7.9 1.3-10.8 2.4-1.9 0.7-3.5 1.3-4.7 1.3-1 0-2.7-0.6-4.5-1.2-3.2-1.1-7.1-2.4-11.4-2.4-8.1 0-14.2 4.8-18.7 14.8-8 18 8.6 42.4 8.7 42.6 4 5.6 9.1 8.5 13.8 8.5 2.9 0 4.7-1.2 7.1-2.1 2-0.7 3.9-1.5 5.6-1.5 1.9 0 3.9 0.8 6 1.5 2.4 0.9 4.6 2 7.4 2 7.3 0 13.9-7.2 20.8-22.8 0.5-0.4 0.3-1.3-0.4-1.7zm-19.9-62.4c0.2 3.5-1.3 7.4-4 10.6-2.8 3.3-6.5 5.5-9.8 5.6 0.4-9.1 7.7-14.9 13.8-16.2zm-15.5 19.2c0.4 0.1 0.9 0.1 1.3 0.1 4.3 0 9-2.5 12.5-6.7 3.7-4.4 5.3-9.7 4.5-14.6-0.1-0.8-1.6-1.3-1.6-1.3-7.9 0.7-18.5 8.4-18 21 0 0.8 0.6 1.4 1.3 1.5z"/>
		<path class="st4" d="m482.8 540.5c0 3.2-4.8 5.7-8.2 5.7h-12.9c-3.1-6.1-8.8-12.1-16.2-12.1s-13.1 6-16.2 12.1h-12.2c-2.1 0-4.8-1-4.8-5.7v-8.9c0-2.2 0.8-2.8 1.4-3 7.2-2.7 19.4-4.3 32.5-4.3 13.6 0 26.7 1.7 33.7 4.3 1.4 0.6 2.9 1.9 2.9 3v8.9zm-1.9-14.7c-7.4-2.8-20.6-4.5-34.7-4.5-13.7 0-25.9 1.6-33.5 4.5-2.2 0.8-3.4 2.8-3.4 5.9v8.9c0 5.4 3 8.8 7.9 8.8h13.1c0.6 0 1.1-0.5 1.4-1 2.6-5.4 7.6-11.4 13.8-11.4 6.3 0 11.3 5.9 13.8 11.4 0.3 0.5 0.8 1.1 1.4 1.1h13.8c4.7 0 11.3-3.4 11.3-8.8v-8.9c0.1-2.8-2.3-5.1-4.9-6zm-42.4 2.1c-1.1 0-2.1 0.1-3.1 0.2-0.8 0.1-1.5 0.8-1.4 1.6s0.7 1.3 1.5 1.3h0.1c1 0 2-0.1 3-0.1 0.8 0 1.5-0.7 1.5-1.5 0-0.9-0.7-1.6-1.6-1.5zm-9.2 0.7c-1.1 0.1-2.1 0.3-3.1 0.4-0.8 0.1-1.4 0.9-1.3 1.8 0.1 0.8 0.8 1.3 1.5 1.3h0.2c1-0.2 2-0.3 3-0.4 0.8-0.1 1.4-0.9 1.3-1.7 0-0.9-0.8-1.5-1.6-1.4zm-9.3 1.7c-1.1 0.3-2.1 0.6-3 0.9-0.8 0.3-1.2 1.1-1 1.9 0.2 0.6 0.8 1 1.5 1 0.2 0 0.3 0 0.5-0.1 0.9-0.3 1.8-0.6 2.8-0.8 0.8-0.2 1.3-1.1 1.1-1.9-0.2-0.7-1-1.2-1.9-1zm69 10.2c0 7.6-6.7 14.9-14.4 14.9h-18.2c-1.3-6.1-5.4-12.1-10.9-12.1s-9.6 6-10.9 12.1h-17.5c-7.4 0-14-7-14-14.9v-8.9c0-4.5 2.9-8.6 7.1-10.2 8-3 21.4-4.8 35.8-4.8s27.6 1.8 35.6 4.8c4.4 1.7 7.3 5.8 7.3 10.2v8.9h0.1zm-42.9-59.8c18.9 0 29.3 24.7 29.9 35.9-8-1.9-18.5-3-29.9-3-11.3 0-21.8 1.1-29.9 2.9 0.6-11.2 11-35.8 29.9-35.8zm-5.2-6.9c0-1.2 2.2-2.5 5.1-2.5s5.1 1.3 5.1 2.5-2.2 2.5-5.1 2.5-5.1-1.4-5.1-2.5zm41.8 44.8c-1.1-0.4-2.4-0.8-3.6-1.2-0.1-11-9.6-35.4-27.9-39.2 1.9-1 3.2-2.6 3.2-4.4 0-3.1-3.6-5.6-8.2-5.6s-8.2 2.5-8.2 5.6c0 1.8 1.2 3.4 3.2 4.4-18.3 3.8-27.8 28.1-27.9 39.2-1.4 0.4-2.6 0.8-3.8 1.2-5.4 2-9.1 7.3-9.1 13.1v8.9c0 9.5 8 18 17 18h18.7c0.8 0 1.4-0.7 1.5-1.4 0.9-6 4.6-11 8.1-11 3.6 0 7.2 5 8.1 10.9 0.1 0.8 0.8 1.5 1.5 1.5h19.5c9.3 0 17.4-8.8 17.4-18v-8.9c-0.2-5.7-3.9-11-9.5-13.1z"/>
		<path class="st2" d="m1483.3 247.7c-2.5-2-5.9-3.2-10.2-3.2h-3.5l-4.3-5.5c4.8-4 8.2-10.9 8.5-17.1 4.5-4.8 1.5-17.2 0.7-20.1 1-3.2 0.5-6.8-1.4-9.6-3.8-5.4-11.6-6.3-19.4-1.7-12.1 0.1-14 5.3-14 11-0.7 1.7-3.5 10.4 0.6 20.1 0.1 6.3 3.6 13.5 8.6 17.5l-4.1 5.4h-3.5c-4.4 0-7.8 1.3-10.4 3.2-10.1-7.8-16.6-20.1-16.6-33.9 0-23.6 19.2-42.9 42.9-42.9 23.6 0 42.9 19.2 42.9 42.9-0.2 13.8-6.7 26-16.8 33.9zm-11.9-45.5c1.6 5.5 3 15.3-0.1 17.9-0.4 0.3-0.6 0.7-0.6 1.2 0 7.9-6.4 17.9-13.7 17.9-7.2 0-13.7-10-13.7-17.9 0-0.2 0-0.4-0.1-0.6-4.2-9.4-0.6-18.2-0.6-18.3 0.1-0.2 0.1-0.4 0.1-0.6 0-4.6 0.8-8.2 11.4-8.2 0.3 0 0.6-0.1 0.8-0.2 3-1.9 5.9-2.8 8.6-2.8 3 0 5.5 1.2 7 3.5 1.5 2.1 1.8 4.8 0.9 7.3-0.1 0.2-0.1 0.5 0 0.8zm-14.4 54.5c-8.7 0-16.8-2.6-23.6-7.1 1.9-1.2 4.5-2.1 7.7-2.1h4.3c0.5 0 1 0.1 1.3-0.3l4.8-6.3c1.7 0.9 3.6 1.4 5.5 1.4s3.8-0.6 5.6-1.5l4.9 6.5c0.3 0.4 0.8 0.3 1.2 0.3h4.3c3.2 0 5.7 0.8 7.6 2-6.7 4.5-14.8 7.1-23.6 7.1zm0-88.8c-25.3 0-46 20.6-46 46s20.6 46 46 46c9.9 0 19-3.1 26.5-8.4 0.2-0.1 0.5-0.3 0.7-0.5 11.4-8.4 18.8-21.9 18.8-37 0-25.5-20.6-46.1-46-46.1z"/>
		<path class="st2" d="m1368.5 702.1c-4.1-5.4-10.2-8.1-18.8-8.1-2.4 0-5.3-2.1-5.3-4.5v-8.2c9.4-2.5 16-8.3 18.9-14.1 0.3-0.6 0.3-1.4-0.1-2l-8.6-12.9c0-10.2-0.4-28.2-19.9-28.2s-19.9 18-19.9 28.2l-8.6 12.9c-0.4 0.6-0.4 1.4-0.1 2 2.8 5.7 9.3 11.4 18.4 14v8.3c0 2.4-2.8 4.5-5.3 4.5-8.7 0-14.7 2.7-18.8 8.1-13.2-10.2-21.7-26.2-21.7-44.1 0-30.7 25-55.7 55.7-55.7s55.7 25 55.7 55.7c0.1 18-8.4 33.9-21.6 44.1zm-58.3-35.6 8.3-12.4c0.2-0.3 0.3-0.7 0.3-1.1 0-12.6 1.2-24.8 15.9-24.8s15.9 12.3 15.9 24.8c0 0.4 0.1 0.8 0.3 1.1l8.3 12.4c-3.6 6.2-12.4 12.1-24.5 12.1s-20.8-5.9-24.5-12.1zm24.3 47.3c-11.4 0-22-3.4-30.8-9.3 3.3-4.4 8.2-6.4 15.6-6.4 4.5 0 9.3-3.6 9.3-8.5v-7.4c2 0.3 4 0.5 6.2 0.5 2 0 3.9-0.2 5.7-0.4v7.4c0 4.9 4.8 8.5 9.3 8.5 7.4 0 12.1 2.1 15.5 6.5-8.9 5.7-19.5 9.1-30.8 9.1zm0-115.5c-32.9 0-59.7 26.8-59.7 59.7s26.8 59.7 59.7 59.7 59.7-26.8 59.7-59.7-26.8-59.7-59.7-59.7z"/>
		<path class="st2" d="m963.8 192.4c0 3.4-2.7 6.1-6.1 6.1h-73.5c-3.4 0-6.1-2.7-6.1-6.1v-49c0-3.4 2.7-6.1 6.1-6.1h73.5c3.4 0 6.1 2.7 6.1 6.1v49zm-6.1-58.2h-73.5c-5.1 0-9.2 4.1-9.2 9.2v49c0 5.1 4.1 9.2 9.2 9.2h73.5c5.1 0 9.2-4.1 9.2-9.2v-49c0-5.1-4.2-9.2-9.2-9.2zm-22.3 36 19.9-21.8c0.6-0.6 0.5-1.6-0.1-2.2s-1.6-0.5-2.2 0.1l-23.7 26c-4.1 4.5-11.3 4.5-15.4 0l-23.8-26c-0.6-0.6-1.5-0.7-2.2-0.1-0.6 0.6-0.7 1.5-0.1 2.2l20 21.8-19.8 18.1c-0.6 0.6-0.7 1.5-0.1 2.2 0.3 0.3 0.7 0.5 1.1 0.5s0.7-0.1 1-0.4l19.9-18.1 1.7 1.9c2.6 2.9 6.2 4.4 9.9 4.4 3.8 0 7.3-1.6 9.9-4.4l1.7-1.9 19.9 18.1c0.3 0.3 0.7 0.4 1 0.4 0.4 0 0.8-0.2 1.1-0.5 0.6-0.6 0.5-1.6-0.1-2.2l-19.6-18.1z"/>
		<path class="st2" d="m569.3 185.1c0.4 0.5 1 0.7 1.6 0.7s1.2-0.2 1.6-0.7c0.9-0.9 0.9-2.4 0-3.2-1.9-1.9-1-4.9 0.6-9.7 1.6-4.9 3.5-10.4-0.6-14.4-0.9-0.9-2.4-0.9-3.2 0-0.9 0.9-0.9 2.4 0 3.3 1.9 1.9 1 4.9-0.6 9.7-1.6 4.7-3.4 10.2 0.6 14.3zm12 0c0.4 0.5 1 0.7 1.6 0.7s1.2-0.2 1.6-0.7c0.9-0.9 0.9-2.4 0-3.2-2.1-2.1-0.6-9.8 0.6-16 1.7-8.4 3.3-16.3-0.6-20.1-0.9-0.9-2.4-0.9-3.2 0s-0.9 2.4 0 3.2c2.1 2.1 0.6 9.8-0.6 16-1.7 8.3-3.2 16.2 0.6 20.1zm12.1 0c0.4 0.5 1 0.7 1.6 0.7s1.2-0.2 1.6-0.7c0.9-0.9 0.9-2.4 0-3.2-1.9-1.9-1-4.9 0.6-9.7 1.6-4.9 3.5-10.4-0.6-14.4-0.9-0.9-2.4-0.9-3.2 0-0.9 0.9-0.9 2.4 0 3.3 1.9 1.9 1 4.9-0.6 9.7-1.6 4.7-3.4 10.2 0.6 14.3zm55.8 61.7c-5.4 0-9.7-4.4-9.7-9.8s4.4-9.8 9.7-9.8c5.4 0 9.7 4.4 9.7 9.8s-4.3 9.8-9.7 9.8zm-13.9-13c0 0.2-0.1 0.3-0.1 0.5-4.8 18.8-16.9 38.2-46.2 38.2-42.7 0-48.8-41.4-49.2-61.7h98.4c-0.1 6.2-0.8 14.5-2.9 23zm13.9-11.1c-2.8 0-5.4 0.8-7.6 2.2 1-6.8 1.3-12.7 1.3-16.5v-2.3h-108v2.3c0 14.3 3.2 57.1 38.7 66.6h-29.5c-1.3 0-2.3 1-2.3 2.3s1 2.3 2.3 2.3h96.5c1.3 0 2.3-1 2.3-2.3s-1-2.3-2.3-2.3h-36.5c17.6-4.7 27.2-17.6 32.5-31.1 2.4 4.4 7.2 7.4 12.6 7.4 7.9 0 14.3-6.4 14.3-14.3 0.1-7.8-6.4-14.3-14.3-14.3z"/>
		<path class="st5" d="m1767.2 539.8c15.2 0 27.6 12.4 27.6 27.6s-12.4 27.6-27.6 27.6-27.6-12.4-27.6-27.6c0.1-15.3 12.4-27.6 27.6-27.6zm0 58.2c16.9 0 30.6-13.7 30.6-30.6s-13.7-30.6-30.6-30.6-30.6 13.7-30.6 30.6c0 16.8 13.7 30.6 30.6 30.6zm31-0.7-7.6-7.6c-0.6-0.6-1.6-0.6-2.2 0s-0.6 1.6 0 2.2l3 3c-6.8 6.3-15.6 9.7-24.9 9.7-9.8 0-19.1-3.8-26-10.8-7-6.9-10.8-16.2-10.8-26 0-9.3 3.4-18.1 9.7-24.9l3 3c0.3 0.3 0.7 0.4 1.1 0.4s0.8-0.2 1.1-0.4c0.6-0.6 0.6-1.6 0-2.2l-4.1-4.1-3.6-3.5c-0.6-0.6-1.6-0.6-2.2 0s-0.6 1.6 0 2.2l2.5 2.5c-6.8 7.4-10.6 16.9-10.6 27 0 10.6 4.1 20.6 11.7 28.2 7.4 7.4 17.1 11.5 27.4 11.7v15h-12.3c-0.8 0-1.5 0.7-1.5 1.5s0.7 1.5 1.5 1.5h27.6c0.8 0 1.5-0.7 1.5-1.5s-0.7-1.5-1.5-1.5h-12.3v-15c9.3-0.5 17.9-4.2 24.7-10.5l2.5 2.5c0.3 0.3 0.7 0.4 1.1 0.4s0.8-0.2 1.1-0.4c0.7-0.9 0.7-1.8 0.1-2.4z"/>
		<path class="st2" d="m1473.9 331.8c-0.8 0-1.5 0.7-1.5 1.5s0.7 1.5 1.5 1.5 1.5-0.7 1.5-1.5-0.7-1.5-1.5-1.5zm23 7.7h-46v-8c0-2.3 1.9-4.2 4.2-4.2h37.5c2.3 0 4.2 1.9 4.2 4.2v8h0.1zm-46 3h46v55.1h-46v-55.1zm46 66.3c0 2.3-1.9 4.2-4.2 4.2h-37.5c-2.3 0-4.2-1.9-4.2-4.2v-8h46v8h-0.1zm-4.3-84.6h-37.5c-4 0-7.3 3.3-7.3 7.3v77.4c0 4 3.3 7.3 7.3 7.3h37.5c4 0 7.3-3.3 7.3-7.3v-77.4c0-4.1-3.2-7.3-7.3-7.3zm-23.3 82.7h9.2c0.8 0 1.5-0.7 1.5-1.5s-0.7-1.5-1.5-1.5h-9.2c-0.8 0-1.5 0.7-1.5 1.5s0.6 1.5 1.5 1.5z"/>
		<path class="st2" d="m1375.8 138.1h-32.6l-47.2-46.1c0.7-0.7 1.7-1.6 2.8-2.6l44.9 45.6h32.2v3.1h-0.1zm-63.9-60.9c1.8-1.8 3.6-2.7 5.2-2.7 1.4 0 2.3 0.7 2.9 1.3 1.1 1.2 1.7 3.2 1.6 5.2-0.2 3.3 1.1 6.5 3.8 9.5 4.9 5.3 13.3 8.5 18.9 8.7 0.6 1.4 1.3 3.1 2.1 5.1l-20.9 7.7-24.3-24.6c4.1-4 9.3-8.8 10.7-10.2zm35.5 29.8c0.5 1.2 1 2.5 1.5 3.8l-18.2 6.5-3-3 19.7-7.3zm2.6 6.7c0.6 1.4 1.1 2.8 1.7 4.2-0.4-0.4-1-0.6-1.6-0.4l-13.9 5.3-3-3 16.8-6.1zm2.1 5.3c0.8 2 1.6 4.1 2.4 5.9 0.2 0.6 0.8 0.9 1.4 0.9h11.2c3.6 0 6.9 2.7 8.2 6.1h-30.1l-6.7-6.8 12.7-4.8c0.6-0.2 0.9-0.7 0.9-1.3zm15 3.8h-10.1c-1.5-3.6-3-7.5-4.5-11.3v-0.3c0-0.1-0.1-0.2-0.2-0.3-0.1-0.2-0.2-0.5-0.3-0.7-0.7-1.8-1.4-3.6-2.1-5.3 0-0.1 0-0.3-0.1-0.4-0.1-0.2-0.2-0.3-0.3-0.4-1.1-2.9-2.2-5.4-3-7.1-0.3-0.6-0.8-0.9-1.5-0.9h-0.5c-4.8 0-12.7-2.9-17.1-7.7-2.2-2.3-3.2-4.7-3-7.2 0.2-2.9-0.7-5.7-2.4-7.5-1.4-1.5-3.2-2.3-5.1-2.3-1.7 0-4.4 0.6-7.4 3.6-2.4 2.4-16.8 15.7-16.9 15.8-0.3 0.3-0.5 0.7-0.5 1.1s0.2 0.8 0.5 1.1l48.8 47.6c0.3 0.3 0.7 0.4 1.1 0.4h34.8c0.8 0 1.5-0.7 1.5-1.5v-4.5c0.1-6.5-5.4-12.2-11.7-12.2zm-52.5 3h-24.5c-0.8 0-1.5 0.7-1.5 1.5s0.7 1.5 1.5 1.5h24.5c0.8 0 1.5-0.7 1.5-1.5s-0.7-1.5-1.5-1.5zm-24.5-3h15.3c0.8 0 1.5-0.7 1.5-1.5s-0.7-1.5-1.5-1.5h-15.3c-0.8 0-1.5 0.7-1.5 1.5-0.1 0.8 0.6 1.5 1.5 1.5zm0-6.2h9.2c0.8 0 1.5-0.7 1.5-1.5s-0.7-1.5-1.5-1.5h-9.2c-0.8 0-1.5 0.7-1.5 1.5s0.6 1.5 1.5 1.5z"/>
		<path class="st2" d="m1001.1 750.7c2.5-5 4.1-10.3 4.1-16 0-20.9-17.4-38.3-38.3-38.3s-38.3 17.4-38.3 38.3c0 6.3 2 12.2 5 17.7 0.1 0.2 0.3 0.3 0.4 0.5v8.8c-6.2-7.4-10-16.7-10-26.9 0-23.4 19.5-42.9 42.9-42.9s42.9 19.5 42.9 42.9c0 9-3.1 17.4-8.4 24.5v-7.7c0-0.4-0.2-0.7-0.3-0.9zm-5.1 2.4h3.1v15.3h-3.1v-15.3zm-3.8 17.6c0 3.3-3.8 6.9-7.3 6.9h-4c-0.3-0.3-0.3-1.8-0.2-2.5v-28.1h0.4 3.8c2.5 0 7.3 1 7.3 4.6v19.1zm-56-17.6h3.1v15.3h-3.1v-15.3zm7-1.6c0-3.8 3.1-4.6 5.8-4.6h3.1c3.2 0 2.6 1.4 2.6 1.5v26c0 1.2-1.3 3.1-2.6 3.1h-3.1c-3.4 0-5.8-3.6-5.8-6.9v-19.1zm23.7-62.8c-25.1 0-46 20.8-46 46 0 11.6 4.5 22.1 11.9 30.3 0.3 0.3 0.7 0.5 1.1 0.5v4.4c0 0.8 0.7 1.5 1.5 1.5h4.6c0.3 4.2 3.2 8.3 7.5 9.1 0.2 0.1 0.4 0.1 0.6 0.1h3.8c2.8 0 5.7-3 5.7-6.1v-26c0-3.8-4.1-4.6-5.7-4.6h-3.8-0.4c-4.2 0.3-7 2.6-7.6 6.1h-4.5c-2.5-4.8-4.1-9.9-4.1-15.3 0-19.2 16-35.2 35.2-35.2s35.2 16 35.2 35.2c0 5.5-1.6 10.5-4.1 15.3h-2.9c-0.9-4.2-5.7-6.1-10.2-6.1h-4.2c-1.5 0-3.1 1.5-3.1 3.1v28c0 1.7 0 3.5 1.1 4.7 0.4 0.4 1.1 0.9 2.3 0.9h3.9c4.9 0 9.8-4.5 10.3-9.2h4.7c0.8 0 1.5-0.7 1.5-1.5v-5.8c7.2-8.3 11.5-18.4 11.5-29.4 0.1-25.2-20.7-46-45.8-46z"/>
		<path class="st2" d="m763.9 696.4c-5.8 0-10.8 4.9-10.8 10.7 0 3.3-2.7 6-6 6s-6-2.7-6-6c0-5.8-4.7-10.6-10.6-10.6-5.8 0-10.6 4.7-10.6 10.6 0 3.3-2.7 6-6 6s-6-2.7-6-6c0-5.8-4.7-10.6-10.6-10.6-5.8 0-10.6 4.7-10.6 10.6 0 3.3-2.7 6-6 6s-6-2.7-6-6c0-5.8-4.7-10.6-10.6-10.6-5.8 0-10.6 4.7-10.6 10.6 0 3.3-1.7 5.4-5 5.4s-4.6-1.3-4.6-4.6c0-1.3-1-2.3-2.3-2.3s-2.3 1-2.3 2.3c0 5.8 3.4 9.2 9.2 9.2s9.6-4.2 9.6-10c0-3.3 2.7-6 6-6s6 2.7 6 6c0 5.8 4.7 10.6 10.6 10.6 5.8 0 10.6-4.7 10.6-10.6 0-3.3 2.7-6 6-6s6 2.7 6 6c0 5.8 4.7 10.6 10.6 10.6 5.8 0 10.6-4.7 10.6-10.6 0-3.3 2.7-6 6-6s6 2.7 6 6c0 5.8 4.7 10.6 10.6 10.6 5.8 0 10.6-4.7 10.6-10.6 0-3.3 2.9-6.1 6.2-6.1s4.6 3.6 4.6 6.9c0 1.3 1 2.3 2.3 2.3s2.3-1 2.3-2.3c0-5.9-3.4-11.5-9.2-11.5zm-114.9 32.1h119.5v18.4h-119.5v-18.4zm98.2 32.2h-82.6c-4.6 0-8.9-4.6-10.4-9.2h108.6c-2.9 4.6-10.9 9.2-15.6 9.2zm23.6-36.8h-124c-1.3 0-2.3 1.1-2.3 2.3v23c0 1.3 1.1 2.3 2.3 2.3h2.7c1.6 6.9 7.9 13.8 15.2 13.8h82.6c6.5 0 18-6.9 20.8-13.8h2.9c1.3 0 2.3-1 2.3-2.3v-23c-0.2-1.2-1.2-2.3-2.5-2.3zm-2.3-41.3h-119.5v-2.8c0-26.6 12.2-29.4 40-29.4h12.7 21.2c28.3 0 45.5 2 45.5 29.4v2.8h0.1zm-45.5-36.8h-13-21c-26.9 0-44.6 2.4-44.6 34v5.1c0 1.3 1.1 2.3 2.3 2.3h124.1c1.3 0 2.3-1 2.3-2.3v-5.1c0-31.5-21.7-34-50.1-34z"/>
		<path class="st2" d="m1205.8 740.9c-3.8 2.1-7.4 1.2-10.9-2.7-7.5-8.3-12.6-29.3-11.9-41.9 11 3.2 25 19.8 27.2 32.8 0.9 5.8-0.6 9.7-4.4 11.8zm-9.3 3h-30.2s0-0.1-0.1-0.1c1.2-0.8 2.4-1.7 3.5-2.9h23.3c1.1 1.2 2.3 2.1 3.5 2.8v0.2zm-2.8 6.1h-24.7c-0.5-1-1.1-2-1.5-3.1h27.8c-0.5 1.1-1 2.1-1.6 3.1zm-12.5 9.2c-3.7 0-7.2-2.3-10.2-6.1h20.6c-3 3.8-6.7 6.1-10.4 6.1zm-20.4-17.1c-1.3 0-2.6-0.4-4-1.1-3.9-2.1-5.3-6.1-4.3-11.8 2.2-13 16.3-29.6 27.2-32.8 0.7 12.6-4.4 33.6-11.9 41.9-2.3 2.5-4.6 3.8-7 3.8zm17.2-16.6c1.4-3.9 2.5-8.1 3.3-12.3 0.8 4.2 1.9 8.4 3.3 12.3h-6.6zm10.6 9.2c0.6 1.1 1.2 2.1 1.9 3.1h-18.4c0.6-0.9 1.3-2 1.9-3.1h14.6zm-13-3.1c0.5-1 0.9-2 1.3-3.1h8.9c0.4 1.1 0.9 2.1 1.3 3.1h-11.5zm5.6-49c9.5 0 10.7 9.1 10.7 15-3.5-2.4-7-4.1-10.2-4.6h-0.7-0.2c-3.3 0.5-6.8 2.3-10.4 4.7 0.1-5.8 1.2-15.1 10.8-15.1zm31.9 46.1c-1.7-9.9-9.5-21.4-18.1-28.7v-2.1c0-5.9-1.2-10.4-3.4-13.5 0-7.5 3.7-11 11.1-11 0.8 0 1.5-0.7 1.5-1.5s-0.7-1.5-1.5-1.5c-9.7 0-13.1 5.7-13.9 11.3-2-1.4-4.5-2.1-7.5-2.1-2.7 0-5.1 0.6-7.1 1.9-1.1-7-6.1-11-14.4-11-0.8 0-1.5 0.7-1.5 1.5s0.7 1.5 1.5 1.5c7.5 0 11.4 3.6 11.5 10.6-2.3 2.8-3.6 7-3.8 12.4v3.8c-8.6 7.3-16.3 18.7-18 28.6-1.2 6.9 0.9 12.3 5.9 15.1 1.8 1 3.6 1.6 5.4 1.6 0.9 0 1.8-0.1 2.6-0.4 3.7 10.6 10.4 17.2 17.8 17.2s14.5-6.7 18.2-17.4c0.8 0.2 1.6 0.3 2.4 0.3 1.8 0 3.6-0.5 5.4-1.5 5-2.9 7.1-8.2 5.9-15.1z"/>
		<path class="st2" d="m1477.7 520.4c-0.2-0.1-0.4-0.2-0.7-0.2h-21.9l3.3-11.2 19.3 11.4zm-37.8 51.5 14.3-48.6h21.4l-35.7 48.6zm-2-3.9-13.2-44.7h26.3l-13.1 44.7zm-37.7-44.7h21.3l14.3 48.6-35.6-48.6zm17.1-14.3 3.3 11.2h-22.5l19.2-11.2zm38.3-1-3.6 12.3h-28.1l-3.6-12.3h35.3zm25.2 10.5-23-13.4c-0.2-0.2-0.5-0.2-0.8-0.2h-38.3c-0.3 0-0.5 0.1-0.8 0.2l-23 13.4c-0.4 0.2-0.6 0.6-0.7 1s0 0.9 0.3 1.2l42.1 57.4c0.3 0.4 0.8 0.6 1.2 0.6s0.9-0.2 1.2-0.6l42.1-57.4c0.2-0.4 0.3-0.8 0.3-1.2s-0.2-0.8-0.6-1z"/>
		<path class="st6" d="m489 697.9h-85.8v-2.8c0-1.9 1.5-3.4 3.4-3.4h79.1c1.9 0 3.4 1.5 3.4 3.4v2.8h-0.1zm-85.8 3.1h85.8v36.8h-85.8v-36.8zm85.8 45.6c0 1.9-1.5 3.4-3.4 3.4h-79.1c-1.9 0-3.4-1.5-3.4-3.4v-5.8h85.9v5.8zm-54.8 18.7 2.6-12.3h13.8l2.6 12.3h-19zm51.4-76.6h-79.1c-3.5 0-6.4 2.9-6.4 6.4v51.5c0 3.5 2.9 6.4 6.4 6.4h27.2l-2.6 12.3h-3.4c-0.8 0-1.5 0.7-1.5 1.5s0.7 1.5 1.5 1.5h27.5 0.1 6.2c0.8 0 1.5-0.7 1.5-1.5s-0.7-1.5-1.5-1.5h-5l-2.6-12.3h31.8c3.5 0 6.4-2.9 6.4-6.4v-51.5c-0.1-3.5-3-6.4-6.5-6.4z"/>
		<path class="st2" d="m1169.8 74.2c0.8 0.8 2.2 0.8 3 0s0.8-2.2 0-3l-3-3c-0.8-0.8-2.2-0.8-3 0s-0.8 2.2 0 3l3 3zm0 27.3-3 3c-0.8 0.8-0.8 2.2 0 3s2.2 0.8 3 0l3-3c0.8-0.8 0.8-2.2 0-3s-2.2-0.8-3 0zm-77.3 36c-2.6-7.5-2.4-15.6 0.7-23 3.3-8.1 9.6-14.4 17.6-17.8 4-1.7 8.3-2.6 12.6-2.6 12.5 0 23.8 7 29.3 18.1l-60.2 25.3zm116.8 41.2c-11.4-5.7-39.4-10.1-66.1-10.3 0-0.2 0-0.3-0.1-0.4l-16.6-39.5c-0.1-0.2-0.2-0.3-0.3-0.5l30.3-12.7c0.5-0.2 0.9-0.6 1.2-1.2 0.2-0.5 0.2-1.1 0-1.6-5.8-13.8-19.2-22.7-34.1-22.7-4.2 0-8.3 0.8-12.3 2.1l-1.3-3c-0.5-1.1-1.7-1.6-2.8-1.2-1.1 0.5-1.6 1.7-1.1 2.8l1.3 3.1c-8.2 4-14.5 10.7-18 19.2-3.7 9.1-3.7 19.2 0.1 28.3 0.3 0.8 1.1 1.3 2 1.3 0.3 0 0.6 0 0.8-0.2l30.3-12.7c0 0.2 0 0.4 0.1 0.5l16.1 38.3c-20.7 0.3-40 3.3-49.5 10.4-0.9 0.7-1.1 2.1-0.4 3s2.1 1.1 3 0.4c19.8-14.8 93.9-10.7 115.7 0.2 0.3 0.2 0.6 0.2 1 0.2 0.8 0 1.5-0.4 1.9-1.2 0.3-0.8-0.2-2.1-1.2-2.6zm-25-69.4v4.3c0 1.2 1 2.1 2.1 2.1 1.2 0 2.1-1 2.1-2.1v-4.3c0-1.2-1-2.1-2.1-2.1s-2.1 0.9-2.1 2.1zm27.9-23.6h-4.3c-1.2 0-2.1 1-2.1 2.1 0 1.2 1 2.1 2.1 2.1h4.3c1.2 0 2.1-1 2.1-2.1s-0.9-2.1-2.1-2.1zm-51.5 4.3h4.3c1.2 0 2.1-1 2.1-2.1 0-1.2-1-2.1-2.1-2.1h-4.3c-1.2 0-2.1 1-2.1 2.1 0 1.2 0.9 2.1 2.1 2.1zm42.4 17.6c0.8 0.8 2.2 0.8 3 0s0.8-2.2 0-3l-3-3c-0.8-0.8-2.2-0.8-3 0-0.8 0.9-0.8 2.2 0 3l3 3zm-16.6-28.2c4.7 0 8.5 3.8 8.5 8.5s-3.8 8.5-8.5 8.5-8.5-3.8-8.5-8.5 3.8-8.5 8.5-8.5zm0 21.3c7.1 0 12.9-5.8 12.9-12.9s-5.8-12.9-12.9-12.9-12.9 5.8-12.9 12.9 5.8 12.9 12.9 12.9zm16.6-26.5 3-3c0.8-0.8 0.8-2.2 0-3s-2.2-0.8-3 0l-3 3c-0.8 0.8-0.8 2.2 0 3 0.8 0.9 2.2 0.9 3 0zm-16.6-5.6c1.2 0 2.1-1 2.1-2.1v-4.3c0-1.2-1-2.1-2.1-2.1-1.2 0-2.1 1-2.1 2.1v4.3c-0.1 1.1 0.9 2.1 2.1 2.1z"/>
		<path class="st7" d="m394.3 361.6h-14.1c-0.9 0-1.5 0.7-1.5 1.5s0.7 1.5 1.5 1.5h13.6c0.2 1 0 2.4-0.5 3.8-0.8 2-2.5 4.5-4.9 5.4h-8.2c-0.9 0-1.5 0.7-1.5 1.5s0.7 1.5 1.5 1.5h7.3c0.3 2-0.1 4.7-1.5 6.6-1.3 1.7-3.3 2.6-5.9 2.6h-31.4c-1.6 0-2.5-0.2-3-0.7-0.4-0.4-0.8-0.9-1.3-1.5-1.5-1.8-3.2-3.9-5.4-3.9h-1.6v-27.6c3.1 0 6-1.4 8-3.8 0.2-0.3 0.4-0.5 0.6-0.6 6.2-4.9 10.2-10.2 12.3-16.3 0.3-1 0.5-2.1 0.5-3.4v-8.5c2-1.8 4.6-2.3 6.6-1.1 3.1 1.8 5.1 7.9 1.7 19.5-0.1 0.5 0 1 0.2 1.4 0.3 0.4 0.7 0.6 1.2 0.6h20.7c4.9 0 6.6 1.4 6.6 5.5 0 3.7-0.2 3.7-1 3.7h-14.7c-0.9 0-1.5 0.7-1.5 1.5s0.7 1.5 1.5 1.5h14.3c1 0.5 1.7 1.9 1.9 3.6 0.2 1.8-0.2 4.3-2 5.7zm-81.5-12.3h21.4v33.7h-21.4v-33.7zm86.6 6.4c-0.2-1.7-0.7-3.3-1.6-4.4 1.1-1.3 1.1-3.6 1.1-5.6 0-7.7-5.5-8.6-9.7-8.6h-18.7c2.7-10.3 1.4-18.1-3.6-21-3.3-2-7.7-1.1-10.8 2.1-0.3 0.3-0.4 0.7-0.4 1.1v9.1c0 0.9-0.1 1.7-0.4 2.4-1.9 5.5-5.6 10.4-11.3 14.8-0.5 0.4-0.8 0.8-1.1 1.1-1.4 1.7-3.4 2.7-5.6 2.7v-1.5c0-0.8-0.7-1.5-1.5-1.5h-24.5c-0.9 0-1.5 0.7-1.5 1.5v36.8c0 0.8 0.7 1.5 1.5 1.5h24.5c0.8 0 1.5-0.7 1.5-1.5v-1.7h1.6c0.8 0 2.2 1.7 3.1 2.8 0.5 0.7 1.1 1.3 1.5 1.7 1.5 1.4 3.3 1.6 5.2 1.6h31.3c4.5 0 7.1-2.1 8.4-3.8 2-2.7 2.5-6.2 2.1-9 0.1-0.1 0.1-0.1 0.1-0.2 2.7-1.5 4.6-4.3 5.5-6.6 0.8-2 1-4 0.6-5.6 0.1-0.2 0.2-0.4 0.3-0.7 1.8-1.8 2.7-4.6 2.4-7.5z"/>
		<path class="st8" d="m1622.5 106.3c0 3-1.7 6.1-5.3 6.1-3.7 0-5.3-3.2-5.3-6.1 0-0.8-0.7-1.5-1.5-1.5s-1.5 0.7-1.5 1.5c0 3.4-2.7 6.1-6.1 6.1s-6.1-2.7-6.1-6.1c0-0.8-0.7-1.5-1.5-1.5s-1.5 0.7-1.5 1.5c0 3.4-2.7 6.1-6.1 6.1s-6.1-2.7-6.1-6.1c0-0.8-0.7-1.5-1.5-1.5s-1.5 0.7-1.5 1.5c0 3.4-2.8 6.1-6.1 6.1-3.4 0-6.1-2.7-6.1-6.1 0-0.8-0.7-1.5-1.5-1.5-0.9 0-1.5 0.7-1.5 1.5 0 3.4-2.8 6.1-6.2 6.1s-6.2-2.7-6.2-6.1c0-0.8-0.7-1.5-1.5-1.5s-1.5 0.7-1.5 1.5c0 3.4-2.8 6.1-6.2 6.1-2.4 0-4.4-2.9-4.4-6.1v-1.4l9.2-13.5h67.4l9.2 13.5v1.4h-0.6zm-70.5 34v-26.1c1.4 0.8 2.9 1.2 4.6 1.2 3.2 0 6-1.6 7.7-4.1 1.6 2.5 4.5 4.1 7.7 4.1s6-1.6 7.7-4.1c1.7 2.5 4.5 4.1 7.7 4.1s6-1.6 7.7-4.1c1.7 2.5 4.5 4.1 7.7 4.1 1.6 0 3.2-0.4 4.5-1.2v26.1h-55.3zm64.3 9.2h-73.5v-34.3c2.5-0.5 4.7-1.9 6.1-4 0.1 0.2 0.3 0.4 0.4 0.5-0.2 0.3-0.4 0.6-0.4 0.9v29.1c0 0.8 0.7 1.5 1.5 1.5h58.2c0.8 0 1.5-0.7 1.5-1.5v-29.1c0-0.3-0.1-0.6-0.3-0.9l0.3-0.3c1.3 2.2 3.5 3.6 6.2 3.9v34.2zm-49-70.4h24.5v9.2h-24.5v-9.2zm-9.2-15.3h42.9v12.2h-42.9v-12.2zm67.2 39.7-9.9-14.6c-0.3-0.4-0.8-0.7-1.3-0.7h-19.2v-9.2h7.7c0.8 0 1.5-0.7 1.5-1.5v-15.3c0-0.8-0.7-1.5-1.5-1.5h-46c-0.9 0-1.5 0.7-1.5 1.5v15.3c0 0.8 0.7 1.5 1.5 1.5h7.7v9.2h-19.2c-0.5 0-1 0.2-1.3 0.7l-9.9 14.6c-0.2 0.2-0.3 0.6-0.3 0.9v1.9c0 4.4 2.7 8.2 6.1 9v35.8c0 0.8 0.7 1.5 1.5 1.5h76.6c0.8 0 1.5-0.7 1.5-1.5v-35.9c3.7-1 6.1-4.4 6.1-8.9v-1.9c0.1-0.4 0-0.7-0.1-0.9z"/>
		<path class="st7" d="m417.7 226.1h-34.5c-14.1 0-25.9-14-25.9-29.1s11.8-27.4 25.9-27.4c9.4 0 17.9 4.8 22.7 12.9l0.8 1.3 1.3-0.7c3.1-1.8 6.4-2.6 9.8-2.6 10.7 0 20.1 10.2 20.1 21.8-0.2 10.7-9.1 23.8-20.2 23.8zm0-48.8c-3.4 0-6.8 0.8-10 2.4-5.5-8.3-14.6-13.1-24.6-13.1-15.8 0-29 13.8-29 30.5s13.2 32.2 29 32.2h34.5c13 0 23.1-14.5 23.1-27 0.1-13.4-10.7-25-23-25zm26.8 2.9h-6.1c-0.9 0-1.5 0.7-1.5 1.5s0.7 1.5 1.5 1.5h6.1c0.8 0 1.5-0.7 1.5-1.5 0.1-0.8-0.6-1.5-1.5-1.5zm-66.1-20.7c0.3 0.3 0.7 0.4 1.1 0.4s0.8-0.1 1.1-0.4c0.6-0.6 0.6-1.6 0-2.2l-5.4-5.4c-0.6-0.6-1.6-0.6-2.2 0s-0.6 1.6 0 2.2l5.4 5.4zm48.5-0.9c0.4 0 0.8-0.2 1.1-0.5l4-4c0.6-0.6 0.6-1.6 0-2.2s-1.6-0.6-2.2 0l-4 4c-0.6 0.6-0.6 1.6 0 2.2 0.3 0.4 0.7 0.5 1.1 0.5zm-20.7-9.1c0.8 0 1.5-0.7 1.5-1.5v-9.2c0-0.8-0.7-1.5-1.5-1.5-0.9 0-1.5 0.7-1.5 1.5v9.2c0 0.8 0.7 1.5 1.5 1.5zm-15.9 12.4c4-2.8 8.6-4.3 13.5-4.3 9.6 0 18.1 5.7 21.7 14.6 0.2 0.6 0.8 0.9 1.4 0.9 0.2 0 0.4 0 0.6-0.1 0.8-0.3 1.2-1.2 0.8-2-4.1-10-13.7-16.5-24.5-16.5-5.5 0-10.8 1.7-15.3 4.9-0.7 0.5-0.9 1.4-0.4 2.1 0.6 0.7 1.6 0.9 2.2 0.4z"/>
		<path class="st9" d="m1872.9 471.2h-34.5c-14.1 0-25.9-14-25.9-29.1s11.8-27.4 25.9-27.4c9.4 0 17.9 4.8 22.7 12.9l0.8 1.3 1.3-0.7c3.1-1.8 6.4-2.6 9.8-2.6 10.7 0 20.1 10.2 20.1 21.8-0.2 10.7-9.1 23.8-20.2 23.8zm0-48.8c-3.4 0-6.8 0.8-10 2.4-5.5-8.3-14.6-13.1-24.6-13.1-15.8 0-29 13.8-29 30.5s13.2 32.2 29 32.2h34.5c13 0 23.1-14.5 23.1-27 0.1-13.4-10.7-25-23-25zm26.8 2.9h-6.1c-0.9 0-1.5 0.7-1.5 1.5s0.7 1.5 1.5 1.5h6.1c0.8 0 1.5-0.7 1.5-1.5s-0.6-1.5-1.5-1.5zm-66.2-20.7c0.3 0.3 0.7 0.4 1.1 0.4s0.8-0.1 1.1-0.4c0.6-0.6 0.6-1.6 0-2.2l-5.4-5.4c-0.6-0.6-1.6-0.6-2.2 0s-0.6 1.6 0 2.2l5.4 5.4zm48.6-0.9c0.4 0 0.8-0.2 1.1-0.5l4-4c0.6-0.6 0.6-1.6 0-2.2s-1.6-0.6-2.2 0l-4 4c-0.6 0.6-0.6 1.6 0 2.2 0.3 0.3 0.7 0.5 1.1 0.5zm-20.7-9.1c0.8 0 1.5-0.7 1.5-1.5v-9.2c0-0.8-0.7-1.5-1.5-1.5-0.9 0-1.5 0.7-1.5 1.5v9.2c0 0.8 0.7 1.5 1.5 1.5zm-15.9 12.4c4-2.8 8.6-4.3 13.5-4.3 9.6 0 18.1 5.7 21.7 14.6 0.2 0.6 0.8 0.9 1.4 0.9 0.2 0 0.4 0 0.6-0.1 0.8-0.3 1.2-1.2 0.8-2-4.1-10-13.7-16.5-24.5-16.5-5.5 0-10.8 1.7-15.3 4.9-0.7 0.5-0.9 1.4-0.4 2.1 0.6 0.7 1.5 0.9 2.2 0.4z"/>
		<path class="st5" d="m1559.9 294c-1.3 0-3-0.2-3.6-1.2-0.4-0.6-1.2-3.5 3.9-12.3 6.1-10.5 12.6-15.8 19.3-15.8 9.1 0 16.7 9.6 19.7 13.8-6.8 3.9-28.9 15.5-39.3 15.5zm44.9-14c0.2-0.6 0.1-1.2-0.2-1.7-0.4-0.7-10.7-18-24.9-18-8.5 0-16.3 6.1-23.3 18-4.7 8-5.9 13.4-3.9 16.9 1.3 2.3 3.9 3.5 7.5 3.5 13.6 0 42.5-16.5 43.8-17.2 0.4-0.4 0.8-0.9 1-1.5zm60.2 12.8c-0.6 1-2.2 1.2-3.6 1.2-10.4 0-32.4-11.6-39.4-15.4 2.9-4.2 10.6-13.8 19.7-13.8 6.7 0 13.2 5.3 19.3 15.8 5.2 8.7 4.4 11.6 4 12.2zm-23.3-32.6c-14.3 0-24.5 17.3-24.9 18-0.3 0.5-0.4 1.2-0.2 1.7 0.2 0.6 0.5 1.1 1.1 1.4 1.2 0.7 30.2 17.2 43.8 17.2 3.7 0 6.2-1.2 7.5-3.5 2-3.5 0.8-8.8-3.9-16.9-7-11.9-14.9-17.9-23.4-17.9zm-30.1 58.2c-7.2 0-13.4-8.4-15.8-12.3 2.6-0.9 8-1.8 15.8-1.8 7.5 0 12.5 0.9 14.7 1.6-4.8 8.3-9.7 12.5-14.7 12.5zm19.6-12c0.4-0.7 0.3-1.6-0.1-2.3-2.4-3.7-13.3-4.3-19.6-4.3-3.9 0-16.9 0.3-20.6 3.9-0.7 0.7-0.9 1.8-0.4 2.7 0.3 0.6 7.9 14.7 18.7 16.5v6.4c-8.6-1.1-14.8-9.1-14.9-9.2-0.8-1-2.2-1.2-3.2-0.4s-1.2 2.2-0.4 3.2c0.3 0.5 8.4 10.9 20.1 11.1h0.4c7 0 13.7-3.7 19.8-11 0.8-1 0.7-2.4-0.3-3.2s-2.4-0.7-3.2 0.3c-4.3 5.2-8.9 8.3-13.6 9.1v-6.2c6.3-1.3 12.1-6.8 17.3-16.6zm-52-25c-1.9 0-3.4-1.5-3.4-3.4s1.5-3.4 3.4-3.4 3.4 1.5 3.4 3.4c0.1 1.9-1.5 3.4-3.4 3.4zm0-11.4c-4.4 0-8 3.6-8 8s3.6 8 8 8 8-3.6 8-8c0.1-4.4-3.5-8-8-8zm62.9 11.4c-1.9 0-3.4-1.5-3.4-3.4s1.5-3.4 3.4-3.4 3.4 1.5 3.4 3.4c0.1 1.9-1.5 3.4-3.4 3.4zm0-11.4c-4.4 0-8 3.6-8 8s3.6 8 8 8 8-3.6 8-8c0.1-4.4-3.5-8-8-8zm31.4 20.1c0 33.5-28 60.7-62.5 60.7-34.4 0-62.5-27.2-62.5-60.7 0-11.9 3.6-23.5 10.4-33.5 0.5-0.7 0.5-1.5 0.2-2.3-0.3-0.7-1-1.2-1.8-1.3-4.8-0.5-9-3.8-10.6-8.4-1.1-3.1-0.9-6.5 0.6-9.4 1.4-2.8 3.9-4.9 6.9-5.9 1.2-0.4 2.4-0.6 3.7-0.6 5.3 0 10.1 3.4 11.8 8.5 0.3 0.8 0.5 1.7 0.6 2.6 0.1 0.8 0.6 1.5 1.4 1.8 0.7 0.3 1.6 0.3 2.3-0.2 10.9-7.8 23.7-12 37.2-12 12.5 0 24.6 3.6 35 10.4 0.6 0.4 1.5 0.5 2.2 0.2s1.2-0.9 1.4-1.7c0.8-4.3 3.8-7.7 7.9-9 6.3-2 13.4 1.7 15.5 7.9 1.1 3.1 0.9 6.5-0.6 9.4-1.4 2.8-3.9 4.9-6.8 5.9-0.2 0.1-0.4 0.1-0.6 0.1l-0.6 0.1c-0.7 0.2-1.4 0.7-1.6 1.4-0.3 0.7-0.2 1.5 0.2 2.1 6.7 10.2 10.3 21.8 10.3 33.9zm2.9-41.3c2-4 2.3-8.6 0.8-13-2.4-7-8.9-11.6-16.2-11.6-1.7 0-3.4 0.3-5.1 0.8-4.6 1.5-8.2 5-10 9.4-10.5-6.2-22.5-9.5-34.9-9.5-13.2 0-26 3.8-37 10.9-2.4-6.9-8.9-11.6-16.2-11.6-1.7 0-3.4 0.3-5.1 0.8-4.2 1.4-7.6 4.3-9.6 8.2-2 4-2.3 8.6-0.8 13 1.8 5.1 5.9 9.1 10.9 10.8-6.1 10-9.3 21.4-9.3 33.2 0 36 30.1 65.3 67.1 65.3s67.1-29.3 67.1-65.3c0-12-3.3-23.6-9.7-33.8 3.5-1.6 6.3-4.2 8-7.6z"/>
		<path class="st2" d="m559.7 639.1-11.6 7.2-2.2 1.3c-0.7-1.7-1-3.5-0.9-5.3 0.3-0.3 0.4-0.6 0.4-1.1 0-0.2-0.1-0.5-0.2-0.7 0.7-2.8 2.4-5.2 4.9-6.8 1.7-1.1 3.7-1.6 5.8-1.6 3.3 0 6.4 1.5 8.5 4l-4.7 3zm2.9 5.7c-0.4 1.8-1.5 3.3-3.1 4.2-2.7 1.7-6.3 1.2-8.5-1l11.3-7c0.5 1.2 0.6 2.5 0.3 3.8zm-20.3-5.1h-26.8c-0.9-6.9-7.9-14.6-16.1-14.6-2.8 0-5.3 0.4-7.7 1.1v-7.9h20.3c2.9 0 8.9 8 8.9 16.8 0 0.8 0.7 1.5 1.5 1.5h12.6c0.8 0 1.5-0.6 1.5-1.4 0-0.1 1.2-12 9.5-15.8 0.5-0.2 0.9-0.8 0.9-1.4v-9h1.7c1.2 3.1 5.2 13.1 8.6 20.1-0.4 0-0.8-0.1-1.3-0.1-2.6 0-5.2 0.7-7.4 2.1-3.1 2-5.3 5.1-6.2 8.6zm-61.6 0c4.2-7.9 10.2-11.6 18.8-11.6 6.6 0 12 6.5 13 11.6h-31.8zm18.8 10.5c-4.6 0-8.1-3.1-8.8-7.4h17.6c-0.7 4.3-4.3 7.4-8.8 7.4zm-10.8-41.1h24.5v6.1h-24.5v-6.1zm79.2 26.7c-1.7-2.7-4.1-4.7-7-5.8 0-0.2-0.1-0.3-0.1-0.5-4.1-8.2-9.6-22.4-9.7-22.6-0.2-0.6-0.8-1-1.4-1h0.3c0.8 0 1.5-0.7 1.5-1.5s-0.7-1.5-1.5-1.5h-12.3c-0.9 0-1.5 0.7-1.5 1.5s0.7 1.5 1.5 1.5h7.7c-0.9 0-1.5 0.7-1.5 1.5v9.6c-7.4 4-9.6 13-10.2 16.4h-9.7c-0.5-6.9-4.2-14.2-8.4-17.1 0.4-0.3 0.7-0.8 0.7-1.3v-7.7c0-0.8-0.7-1.5-1.5-1.5h-27.6c-0.9 0-1.5 0.7-1.5 1.5v9.2c0 0.8 0.7 1.5 1.5 1.5h1.5v9.1c-5 2.4-9 6.8-11.9 13.3-0.2 0.5-0.2 1 0.1 1.5 0.3 0.4 0.8 0.7 1.3 0.7h9.3c0.7 6.1 5.6 10.5 11.9 10.5s11.2-4.4 11.9-10.5h30.6c-0.1 2.7 0.6 5.5 2.1 7.8 0.2 0.4 0.6 0.6 1 0.7h0.4c0.3 0 0.6-0.1 0.8-0.2l2.4-1.5c1.9 2.2 4.6 3.5 7.5 3.5 1.8 0 3.6-0.5 5.2-1.5 2.3-1.4 3.8-3.6 4.4-6.2 0.5-2.1 0.3-4.2-0.5-6.1l2.4-1.5c0.6-0.1 0.8-1.1 0.3-1.8z"/>
		<path class="st10" d="m369 599.5c-0.5 0.6-1 1.2-1.7 1.8 0-1.2-0.4-2.4-1.2-3.4-1.5-1.9-4.5-3.1-8-2.7 1-2.1 1-4.4 0.1-6.3-0.8-1.7-2.4-2.8-4.2-3.3 1.4-2.2 1.3-4.6 0.4-6.4-0.1-0.2-0.3-0.4-0.4-0.6 1.6-0.3 3.2-0.4 4.6-0.4 4.9 0 8.4 1.6 10.4 4.7-1 0.6-2.2 1.1-3.9 1.4-0.8 0.1-1.4 0.9-1.3 1.7s0.8 1.3 1.5 1.3h0.2c2-0.3 3.5-0.9 4.7-1.6 0.1 0.3 0.2 0.5 0.3 0.8 1.5 5.3 1 9.7-1.5 13zm-5.7 4.1c0 0.1-0.1 0.1-0.1 0.2-4.5 2.1-10.8 3.2-18.8 3.2-1.1 0-2.2 0-3.4-0.1-19.9-0.7-32.2-9.2-41.6-17.5-2.9-2.5-4.1-5.3-3.2-7.6 0.6-1.7 2.4-2.8 4.7-2.8 1.6 0 3.3 0.5 5 1.5 10.8 6.2 24.4 6.8 36.5 1.5 2.7-1.2 5.2-2.1 7.6-2.7 0.7 0 1.3 0.7 1.6 1.2 0.7 1.3 0.5 3.5-2.1 5.1-0.6 0.4-0.9 1.2-0.6 1.9s1 1.1 1.7 0.9c2.2-0.5 4.1 0.2 4.9 1.7 0.9 1.9 0 4.4-2.4 6.6-0.6 0.5-0.7 1.4-0.2 2 0.4 0.6 1.3 0.9 2 0.5 3.9-2 7.5-1.2 8.9 0.5 0.8 1.2 0.7 2.5-0.5 3.9zm-52.5-46.4c-0.2 6.3 1.8 8.9 3.3 10 1.7 1.3 4 1.5 6.1 0.4 3.4-1.7 5.6-5.8 5.6-10.5 0-3.2-0.5-6.5-1-9.7-1.2-7.6-2.4-14.9 3.1-21.2-2.1 10.2-0.1 16.4 2.6 18.7 1.4 1.2 3.2 1.6 4.7 0.8 1.8-0.9 3-2.9 3.5-5.8 3.5 4.1 4.9 9.2 4.7 12.7-0.1 2.2-1.2 4.9-2.3 7.6-1.9 4.6-3.9 9.4-0.2 11.5 1.6 0.9 3.4 0.8 5-0.2 3.3-2.1 5.4-7.8 5.7-12.8 3.1 3.1 5.9 9.2 5.6 15.5 0 0.3 0.1 0.5 0.2 0.8-2.4 0.1-5.1 0.5-7.9 1.3-0.4 0.1-0.7 0.1-1.1 0.3-2.3 0.7-4.6 1.5-7.1 2.6-11.3 4.9-23.9 4.3-33.8-1.4l-0.6-0.3c-0.7-6.4 0.5-14.6 3.9-20.3zm71.9 11.7c-6.9 0-8.5 4.2-10 7.9-0.5 1.3-1 2.6-1.7 3.6-2.4-3.3-6.2-5.1-11.1-5.5 0.1-0.2 0.2-0.4 0.2-0.7 0.3-8.3-4-17.3-9.6-20-0.5-0.2-1.1-0.2-1.5 0.1-0.5 0.3-0.7 0.9-0.7 1.4 0.5 4.9-1.7 11.4-4.3 13.1-0.6 0.4-1.2 0.5-1.8 0.1-1.4-0.8 0.1-4.5 1.5-7.7 1.2-2.9 2.4-5.9 2.6-8.6 0.3-5.1-2.1-12.6-8.1-17.5-0.5-0.4-1.1-0.5-1.6-0.2s-0.9 0.8-0.9 1.4c0.1 3.8-0.9 6-2 6.5-0.4 0.2-0.9 0.1-1.4-0.4-1.8-1.6-4.2-7.9-0.4-20.5 0.2-0.6 0-1.3-0.6-1.7-0.5-0.4-1.3-0.4-1.8 0-11.1 8.1-9.4 18.4-8 27.5 0.5 3.2 1 6.2 1 9.2 0 4-2 6.8-3.9 7.7-0.8 0.4-1.9 0.7-2.9-0.1-0.8-0.6-3.1-3.2-1.5-12.3 0.1-0.6-0.2-1.3-0.8-1.6s-1.3-0.2-1.8 0.2c-6.4 5.8-8.7 16.8-8.2 25.4-0.9-0.2-1.9-0.4-2.7-0.4-3.5 0-6.4 1.8-7.5 4.8-1.3 3.5 0.2 7.6 4.1 10.9 9.8 8.6 22.7 17.5 43.6 18.2 1.2 0 2.3 0.1 3.5 0.1 13.5 0 22.6-2.9 27-8.7 3.1-4 3.8-9.4 2-15.8-0.2-0.7-0.5-1.5-0.7-2.1 1.4-1.7 2.2-3.7 2.9-5.4 1.3-3.5 2.3-6 7.1-6 0.9 0 1.5-0.7 1.5-1.5 0-0.7-0.7-1.4-1.5-1.4z"/>
		<path class="st11" d="m249.8 503.8c1.7 2.3 2.5 4.2 2.5 6.5 0 8.1-9.3 14.5-21.1 14.5h-20.4c-0.6 0-1.1 0.4-1.4 0.9-3.1 6.8-7.8 13.2-20.5 14.6 4.6-4.2 6.9-10.1 5.9-16.1-0.1-0.6-0.6-1.1-1.2-1.2-11.3-2.7-18.6-8.6-18.6-15.1 0-1.9 0.6-3.8 2-5.7 0.4-0.5 0.4-1.3 0-1.8-1.3-1.7-1.9-3.5-1.9-5.3 0-4.7 4.2-9 10.4-10.7 0.6-0.2 1.1-0.7 1.1-1.3 0.8-7.7 11.4-13.4 23.7-13.4 8.3 0 15.6 2.3 19.9 6.8 0.3 0.3 0.7 0.5 1.2 0.5h0.4 1.3c13 0 23.2 6 23.2 14.2 0 3.6-1.9 7.8-5.9 10.5-0.3 0.2-0.6 0.6-0.6 1-0.3 0.4-0.2 0.8 0 1.1zm9.4-12.7c0-9.8-11.6-17.2-26.3-17.2h-1.1c-5-4.8-12.8-7.3-21.6-7.3-13.6 0-24.8 6.2-26.5 15.1-7.1 2.2-11.7 7.5-11.7 13.4 0 2.2 0.6 4.3 1.9 6.3-1.3 2.1-1.9 4.3-1.9 6.5 0 7.8 7.8 14.7 20 17.8 0.4 4.8-1.7 11.2-8.9 15.1-0.6 0.3-0.9 1-0.8 1.7 0.2 0.7 1.3 0.8 2 0.8 17.9 0 23.8-7.4 27.6-15.3h19.4c13.6 0 24.2-7.7 24.2-17.5 0-2.5-0.7-4.7-2.2-7.1 4-3.4 5.9-8 5.9-12.3z"/>
		<path class="st12" d="m178 334.8-12.2-66.5-69.3 133.8-22.6-23.2-80.9 110.7 86.8-72 18.1 20.1 80.1-102.9z"/>
		<path class="st13" d="m1785.5 147.3-53.1 7.2 108.4 82.8-26.1 19.2 98.3 95.5-59.3-95.9 22.4-15.1-90.6-93.7z"/>
		<path class="st2" d="m510.7 287.9c-2-6.9-6.8-11.2-14-12.4-0.7-0.1-1.3 0.3-1.4 1s0.3 1.3 1 1.4c6.2 1.1 10.3 4.6 12 10.7 0.2 0.5 0.6 0.9 1.2 0.9h0.3c0.7-0.3 1.1-1 0.9-1.6zm-11.3 12.8v-4.2c0-1.6 0.6-3.4 2.6-3.4s3 1.7 3 3.4c0 1.9-1.7 4.4-3.5 4.4-0.8 0-2.1-0.1-2.1-0.2zm5.4 13c-0.4 0.2-0.6 0.6-0.6 1.1v0.9h-0.1-4.8v-12.4c0 0.1 1.4 0.2 2.1 0.2 3.3 0 5.9-3.7 5.9-6.8 0-3.3-2.3-5.8-5.4-5.8-3 0-5.1 2.4-5.1 5.8v3.4h-0.1c-2.2-1.2-3.4-3.4-3.6-6.6v-0.9c0-0.7-0.6-1.2-1.3-1.2s-1.2 0.5-1.2 1.2c0 0.3 0 0.6 0.1 0.9-0.1 1.8 0 3.4-1.2 4.6v-1.3c0-3.4-3.3-5.6-6.3-5.6-3.3 0-6.3 2.9-6.3 6.1 0 3.4 2.7 6.3 5.8 6.3 1.5 0 3.1-0.2 4.4-0.6v12.9h-7.4v-0.8c0-0.4-0.2-0.7-0.5-0.9-3.2-2.6-10.5-9.4-10.5-17.8 0-5.7 1.6-24.5 23.3-24.5 21.6 0 23.3 18.8 23.3 24.5 0 7.4-3.7 13.6-10.5 17.3zm-15.2 1.9v-14.2c1.2-0.7 1.8-1.7 2.5-3.1 1 1.9 2.3 3 3.5 3.7 0.4 0.2 1.3 0.4 1.3 0.6v13h-7.3zm14.7 6.9-17.1-4.5h17 0.1v4.5zm-17.2-22.5c-2.5 0.9-3.7 0.9-4.3 0.9-1.9 0-3.4-2.1-3.4-3.9s1.9-3.6 3.8-3.6c1.8 0 3.9 1.3 3.9 3.1v3.5zm17.2 28.3c0 0.7-0.1 1.3-0.2 2h-4.4l-19.9-5.6v-6.1l24.1 6.3h0.3 0.1v3.4zm-12.1 11.8c-5.1 0-9.5-3.2-11.4-7.4h18.5 0.3 0.3 3.4c-1.8 4.2-6.1 7.4-11.1 7.4zm-12.4-11.8v-1l10.8 3h-10.6c-0.2-0.7-0.2-1.3-0.2-2zm12.3-59.3c-19.1 0-25.8 14-25.8 27 0 9.1 7.4 16.3 11 19.4v12.9c0 7.5 6.7 14.3 14.8 14.3s14.6-6.7 14.6-14.3v-12.8c7.4-4.1 11-11.1 11-19.5 0.1-13-6.7-27-25.6-27z"/>
		<path class="st2" d="m517.3 66.4c15.2 0 27.6 12.4 27.6 27.6s-12.4 27.6-27.6 27.6-27.6-12.4-27.6-27.6c0.1-15.2 12.4-27.6 27.6-27.6zm0 58.2c16.9 0 30.6-13.7 30.6-30.6s-13.7-30.6-30.6-30.6-30.6 13.7-30.6 30.6 13.7 30.6 30.6 30.6zm30.9-0.7-7.6-7.6c-0.6-0.6-1.6-0.6-2.2 0s-0.6 1.6 0 2.2l3 3c-6.8 6.3-15.6 9.7-24.9 9.7-9.8 0-19.1-3.8-26-10.8-7-6.9-10.8-16.2-10.8-26 0-9.3 3.4-18.1 9.7-24.9l3 3c0.3 0.3 0.7 0.4 1.1 0.4s0.8-0.2 1.1-0.4c0.6-0.6 0.6-1.6 0-2.2l-4.1-4.1-3.6-3.5c-0.6-0.6-1.6-0.6-2.2 0s-0.6 1.6 0 2.2l2.5 2.5c-6.8 7.4-10.6 16.9-10.6 27 0 10.6 4.1 20.6 11.7 28.2 7.4 7.4 17.1 11.5 27.4 11.7v15h-12.3c-0.8 0-1.5 0.7-1.5 1.5s0.7 1.5 1.5 1.5h27.6c0.8 0 1.5-0.7 1.5-1.5s-0.7-1.5-1.5-1.5h-12.3v-15c9.3-0.5 17.9-4.2 24.7-10.5l2.5 2.5c0.3 0.3 0.7 0.4 1.1 0.4s0.8-0.2 1.1-0.4c0.7-0.8 0.7-1.8 0.1-2.4z"/>

		<path class="st2" d="m1620.7 598.1c-0.8 0-1.5 0.7-1.5 1.5s0.7 1.5 1.5 1.5h55.1c0.8 0 1.5-0.7 1.5-1.5s-0.7-1.5-1.5-1.5h-55.1zm-6.2 6.1c-0.8 0-1.5 0.7-1.5 1.5s0.7 1.5 1.5 1.5h67.4c0.8 0 1.5-0.7 1.5-1.5s-0.7-1.5-1.5-1.5h-67.4zm-5.4-46.8c-0.7-1.1-0.5-2.6 0.5-3.4l27.4-21.3c0.3-0.3 0.6-0.7 0.6-1.1l0.6-8.7 8.6 6.3c0.1 0 0.3 0.8 0.5 0.8 0.2 0.1 0.4 0.7 0.7 0.7 0.2 0 0.2-0.4 0.2-0.5l6.4-3.8 4.4 6.6c0.3 0.4 0.7 0.6 1.2 0.7l4.9 0.4-2 4.6c-0.3 0.7 0 1.6 0.7 1.9l4.7 2.6-3.3 4.3c-0.2 0.3-0.4 0.7-0.3 1.1s0.3 0.8 0.6 1l4.4 3.3-3.7 4.1c-0.3 0.3-0.4 0.7-0.4 1.1s0.2 0.8 0.5 1.1l4.2 3.6-3.9 4c-0.3 0.3-0.4 0.7-0.4 1.1s0.2 0.8 0.5 1.1l4.1 3.7-4 3.9c-0.3 0.3-0.5 0.7-0.5 1.1s0.2 0.8 0.5 1.1l4.1 3.8-4 3.9c-0.3 0.3-0.5 0.7-0.5 1.1s0.2 0.8 0.5 1.1l3.5 3h-44.4c0.2-11.7 4.8-15 9.7-18.5 4.6-3.2 9.3-6.6 9.6-16.5l3.7-1.2c0.8-0.3 1.2-1.1 1-1.9-0.3-0.8-1.1-1.2-1.9-1l-31.7 10.3c-1.3 0.4-3.3-0.2-4.1-1.4l-3.2-4.1zm33.1 0.6c-0.5 7.5-4.1 10-8.2 13-5.1 3.6-10.8 7.7-11 21.2-0.5 0.3-0.8 0.7-0.8 1.3 0 0.8 0.7 1.5 1.5 1.5h52.1c0.8 0 1.5-0.7 1.5-1.5s-0.7-1.5-1.5-1.5h-0.6l-4.8-4.3 4-3.8c0.3-0.3 0.5-0.7 0.5-1.1s-0.2-0.8-0.5-1.1l-4.1-3.8 4-3.9c0.3-0.3 0.5-0.7 0.5-1.1s-0.2-0.8-0.5-1.1l-4.1-3.8 3.9-4c0.3-0.3 0.5-0.7 0.4-1.1 0-0.4-0.2-0.8-0.5-1.1l-4.3-3.6 3.7-4.2c0.3-0.3 0.4-0.8 0.4-1.2s-0.3-0.8-0.6-1.1l-4.5-3.4 3.4-4.5c0.3-0.4 0.4-0.8 0.3-1.2s-0.4-0.8-0.7-1l-5-2.8 2.3-5.3c0.2-0.5 0.2-1-0.1-1.4s-0.7-0.7-1.2-0.7l-6.2-0.6-4.6-7.3c-0.4-0.7-1.3-0.9-2.1-0.5l-6.6 3.8-10.1-7.7c-0.4-0.3-1.1-0.4-1.6-0.2s-0.9 0.7-0.9 1.3l-0.8 10.6-26.9 20.9c-2.3 1.8-2.8 5.2-1.2 7.6l3.1 4.5c1.2 1.8 3.5 2.8 5.6 2.8 0.7 0 1.3-0.1 1.9-0.3l24.9-8.3z"/>

	</g>

</svg>
